<?xml version="1.0" standalone="no"?>
<!DOCTYPE svg PUBLIC "-//W3C//DTD SVG 1.1//EN" "http://www.w3.org/Graphics/SVG/1.1/DTD/svg11.dtd" >
<svg xmlns="http://www.w3.org/2000/svg" xmlns:xlink="http://www.w3.org/1999/xlink" version="1.1">
<metadata>
Created by FontForge 20141024 at Thu May 21 22:46:18 2015
 By System Administrator
Copyright (c) 2012 by Letterhead Studio. All rights reserved.
</metadata>
<defs>
<font id="CTCSplashRounded" horiz-adv-x="585" >
  <font-face 
    font-family="CTC Splash Rounded"
    font-weight="400"
    font-stretch="normal"
    units-per-em="1000"
    panose-1="2 0 0 0 0 0 0 0 0 0"
    ascent="750"
    descent="-250"
    x-height="481"
    cap-height="647"
    bbox="-3 -204 1033 812.83"
    underline-thickness="50"
    underline-position="-50"
    stemh="81"
    stemv="99"
    unicode-range="U+0020-2122"
  />
<missing-glyph horiz-adv-x="170" 
 />
    <glyph glyph-name=".notdef" horiz-adv-x="170" 
 />
    <glyph glyph-name="afii10035" unicode="&#x421;" horiz-adv-x="648" 
d="M361 -13c-192 0 -326 138 -326 335c0 198 135 338 329 338c162 0 244 -89 244 -147c0 -49 -50 -64 -60 -46c-36 65 -110 100 -183 100c-131 0 -223 -99 -223 -243c0 -143 95 -244 225 -244c87 0 160 43 187 113c7 18 64 1 64 -50c0 -59 -85 -156 -257 -156z" />
    <glyph glyph-name="A" unicode="A" horiz-adv-x="630" 
d="M208 273h209l-104 274zM504 32l-62 158h-259l-61 -158c-14 -35 -31 -37 -53 -37c-30 0 -61 19 -51 45l225 580c11 29 24 33 71 33c48 0 60 -4 71 -33l227 -580c10 -26 -22 -45 -53 -45c-23 0 -41 2 -55 37z" />
    <glyph glyph-name="B" unicode="B" horiz-adv-x="614" 
d="M124 0c-33 0 -55 13 -55 48v551c0 35 22 48 55 48h213c141 0 218 -59 218 -168c0 -70 -40 -117 -114 -139c96 -22 140 -83 140 -159c0 -121 -77 -181 -246 -181h-211zM171 83h162c104 0 142 31 142 106c0 68 -43 102 -139 102h-165v-208zM171 365h158
c76 0 119 40 119 102c0 64 -37 97 -121 97h-156v-199z" />
    <glyph glyph-name="D" unicode="D" horiz-adv-x="666" 
d="M126 0c-32 0 -57 16 -57 47v552c0 35 24 48 55 48h158c220 0 351 -120 351 -322s-134 -325 -356 -325h-151zM171 91h108c158 0 250 84 250 233c0 147 -93 231 -249 231h-109v-464z" />
    <glyph glyph-name="E" unicode="E" horiz-adv-x="582" 
d="M124 0c-33 0 -55 12 -55 47v552c0 35 22 48 55 48h380c32 0 47 -6 44 -33l-3 -26c-4 -28 -20 -33 -52 -33h-321v-181h248c33 0 47 -4 44 -31l-3 -23c-3 -28 -20 -33 -52 -33h-237v-195h333c32 0 47 -14 47 -41v-16c0 -29 -15 -35 -47 -35h-381z" />
    <glyph glyph-name="F" unicode="F" horiz-adv-x="539" 
d="M124 -4h-7c-33 0 -48 6 -48 41v562c0 35 22 48 55 48h350c32 0 47 -6 44 -33l-3 -26c-4 -28 -20 -33 -52 -33h-291v-201h228c33 0 47 -4 44 -31l-3 -23c-3 -28 -20 -33 -52 -33h-216v-230c0 -35 -16 -41 -49 -41z" />
    <glyph glyph-name="G" unicode="G" horiz-adv-x="699" 
d="M554 91c-40 -64 -115 -103 -215 -103c-187 0 -306 141 -306 334c0 198 136 338 332 338c157 0 245 -81 245 -138c0 -48 -48 -63 -56 -49c-39 65 -115 98 -187 98c-134 0 -228 -102 -228 -250c0 -145 83 -250 220 -250c104 0 194 58 194 156v30h-152c-35 0 -52 1 -52 29
v25c0 29 17 30 52 30h188c37 0 55 -6 55 -42v-284c0 -15 -11 -19 -34 -19c-34 0 -56 15 -56 54v41z" />
    <glyph glyph-name="H" unicode="H" horiz-adv-x="685" 
d="M112 -4c-28 0 -43 6 -43 37v581c0 31 15 37 43 37h15c30 0 45 -6 45 -37v-245h341v245c0 31 15 37 43 37h15c30 0 45 -6 45 -37v-581c0 -31 -15 -37 -45 -37h-15c-28 0 -43 6 -43 37v246h-341v-246c0 -31 -15 -37 -45 -37h-15z" />
    <glyph glyph-name="I" unicode="I" horiz-adv-x="259" 
d="M181 614v-581c0 -31 -15 -37 -45 -37h-15c-28 0 -43 6 -43 37v581c0 31 15 37 43 37h15c30 0 45 -6 45 -37z" />
    <glyph glyph-name="J" unicode="J" horiz-adv-x="339" 
d="M5 52c0 25 6 33 21 33c18 0 41 -4 55 -4c77 0 95 35 95 138v395c0 31 15 37 44 37h15c29 0 44 -6 44 -37v-401c0 -152 -48 -223 -163 -223c-71 0 -111 24 -111 62z" />
    <glyph glyph-name="K" unicode="K" horiz-adv-x="556" 
d="M172 314v-281c0 -31 -15 -37 -45 -37h-15c-28 0 -43 6 -43 37v581c0 31 15 37 43 37h15c30 0 45 -6 45 -37v-270l262 277c13 14 37 30 62 30c12 0 25 -4 37 -13c10 -8 17 -26 8 -36l-255 -271l257 -281c10 -10 8 -16 4 -23c-7 -13 -21 -31 -55 -31c-22 0 -39 8 -56 29z
" />
    <glyph glyph-name="L" unicode="L" horiz-adv-x="528" 
d="M124 0c-33 0 -55 12 -55 47v567c0 32 15 37 43 37h15c30 0 45 -5 45 -37v-521h281c31 0 48 -5 48 -34v-24c0 -29 -17 -35 -48 -35h-329z" />
    <glyph glyph-name="M" unicode="M" horiz-adv-x="749" 
d="M125 -4h-16c-28 0 -40 6 -40 37v571c0 35 23 47 59 47h27c40 0 47 -6 63 -43l157 -354l158 354c17 38 24 43 62 43h25c37 0 61 -12 61 -47v-571c0 -31 -13 -37 -43 -37h-14c-29 0 -41 6 -41 37v485l-148 -335c-12 -26 -17 -31 -61 -31c-45 0 -49 5 -60 31l-147 332v-482
c0 -31 -12 -37 -42 -37z" />
    <glyph glyph-name="N" unicode="N" horiz-adv-x="682" 
d="M111 -4c-29 0 -42 6 -42 37v570c0 35 17 48 49 48h17c31 0 43 -13 62 -39l320 -454v456c0 31 13 37 43 37h12c28 0 42 -6 42 -37v-570c0 -36 -18 -48 -48 -48h-8c-31 0 -39 9 -55 31l-337 477v-471c0 -31 -14 -37 -44 -37h-11z" />
    <glyph glyph-name="O" unicode="O" horiz-adv-x="721" 
d="M360 -13c-193 0 -327 138 -327 335c0 198 137 338 328 338c193 0 327 -138 327 -336s-136 -337 -328 -337zM361 78c131 0 223 100 223 244s-93 247 -224 247s-223 -100 -223 -245c0 -144 93 -246 224 -246z" />
    <glyph glyph-name="P" unicode="P" horiz-adv-x="569" 
d="M171 316h118c99 0 150 43 150 123c0 81 -51 123 -149 123h-119v-246zM172 233v-200c0 -28 -15 -37 -45 -37h-15c-28 0 -43 6 -43 37v566c0 35 22 48 55 48h167c160 0 251 -73 251 -206c0 -136 -88 -208 -255 -208h-115z" />
    <glyph glyph-name="Q" unicode="Q" horiz-adv-x="731" 
d="M485 112l-113 115c-18 19 -14 38 4 54l7 6c19 18 33 19 52 0l111 -114c26 40 40 90 40 149c0 143 -93 247 -225 247s-224 -102 -224 -245c0 -144 94 -246 225 -246c47 0 89 12 123 34zM614 107c0 1 77 -79 77 -79c10 -14 -9 -50 -49 -50c-26 0 -39 9 -70 42l-24 25
c-53 -37 -117 -58 -188 -58c-192 0 -327 137 -327 335s137 338 329 338s326 -138 326 -336c0 -83 -27 -159 -74 -217z" />
    <glyph glyph-name="R" unicode="R" horiz-adv-x="580" 
d="M367 264l179 -226c12 -15 -7 -42 -56 -42c-41 0 -49 11 -67 35l-171 222h-81v-220c0 -28 -15 -37 -45 -37h-14c-28 0 -43 3 -43 37v566c0 35 22 48 55 48h184c158 0 242 -66 242 -194c0 -107 -63 -176 -183 -189zM170 334h136c95 0 140 44 140 114c0 75 -48 114 -143 114
h-133v-228z" />
    <glyph glyph-name="S" unicode="S" horiz-adv-x="551" 
d="M275 -13c-156 0 -243 76 -243 129c0 34 34 64 47 51c46 -48 102 -95 195 -95c90 0 141 37 141 101c0 73 -76 90 -162 110c-100 23 -204 58 -204 189c0 110 95 188 233 188c144 0 222 -68 222 -115c0 -37 -29 -68 -47 -51c-45 42 -89 81 -174 81c-81 0 -134 -39 -134 -99
c0 -71 63 -82 153 -103c110 -25 216 -68 216 -193c0 -119 -92 -193 -243 -193z" />
    <glyph glyph-name="T" unicode="T" horiz-adv-x="593" 
d="M68 647h463c31 0 48 -5 44 -33l-3 -25c-3 -28 -21 -34 -52 -34h-171v-522c0 -31 -16 -37 -46 -37h-14c-29 0 -44 6 -44 37v522h-177c-31 0 -48 6 -48 34v25c0 28 17 33 48 33z" />
    <glyph glyph-name="U" unicode="U" horiz-adv-x="650" 
d="M324 -12c-172 0 -263 95 -263 275v351c0 31 16 37 44 37h14c30 0 45 -6 45 -37v-348c0 -123 54 -187 161 -187c109 0 161 62 161 188v347c0 32 15 37 44 37h16c29 0 43 -5 43 -37v-349c0 -180 -93 -277 -265 -277z" />
    <glyph glyph-name="V" unicode="V" horiz-adv-x="620" 
d="M133 616l179 -505l180 505c13 36 33 37 55 37c30 0 64 -19 54 -45l-227 -575c-15 -37 -23 -39 -64 -39s-48 2 -63 39l-229 575c-10 26 25 45 57 45c24 0 45 -1 58 -37z" />
    <glyph glyph-name="W" unicode="W" horiz-adv-x="892" 
d="M149 615l109 -500l123 407c14 45 28 47 68 47s55 -2 68 -47l121 -405l111 499c8 37 31 37 53 37c30 0 61 -18 54 -45l-145 -574c-10 -39 -26 -41 -70 -41c-40 0 -55 2 -67 42l-125 418l-131 -418c-12 -40 -25 -42 -65 -42c-44 0 -60 3 -70 41l-147 574c-7 27 25 45 57 45
c24 0 48 -1 56 -38z" />
    <glyph glyph-name="X" unicode="X" horiz-adv-x="606" 
d="M463 31l-163 234l-164 -233c-21 -30 -32 -36 -61 -36c-23 0 -54 13 -54 33c0 3 0 6 2 9l213 287l-205 283c-2 3 -2 6 -2 9c0 21 31 34 55 34c29 0 42 -3 63 -34l158 -230l161 228c21 30 32 36 61 36c23 0 54 -13 54 -33c0 -3 0 -6 -2 -9l-210 -285l211 -284
c2 -3 2 -6 2 -9c0 -21 -31 -34 -55 -34c-29 0 -42 3 -64 34z" />
    <glyph glyph-name="Y" unicode="Y" horiz-adv-x="573" 
d="M287 351l166 264c20 31 32 36 61 36c23 0 54 -13 54 -33c0 -3 -1 -6 -2 -9l-228 -343v-233c0 -31 -15 -37 -45 -37h-14c-29 0 -44 6 -44 37v233l-229 343c-2 3 -2 6 -2 9c0 20 30 33 54 33c29 0 43 -5 63 -36z" />
    <glyph glyph-name="Z" unicode="Z" horiz-adv-x="596" 
d="M510 0h-427c-29 0 -48 13 -48 39v19c0 30 10 45 43 86l339 413h-333c-30 0 -46 3 -46 32v26c0 28 16 32 46 32h404c42 0 53 -12 53 -38v-19c0 -30 -16 -52 -42 -83l-342 -417h353c30 0 46 -3 46 -32v-26c0 -28 -16 -32 -46 -32z" />
    <glyph glyph-name="afii10022" unicode="&#x415;" horiz-adv-x="587" 
d="M124 0c-33 0 -55 12 -55 47v552c0 35 22 48 55 48h380c32 0 47 -6 44 -33l-3 -26c-4 -28 -20 -33 -52 -33h-321v-181h248c33 0 47 -4 44 -31l-3 -23c-3 -28 -20 -33 -52 -33h-237v-195h333c32 0 47 -14 47 -41v-16c0 -29 -15 -35 -47 -35h-381z" />
    <glyph glyph-name="afii10031" unicode="&#x41d;" horiz-adv-x="685" 
d="M112 -4c-28 0 -43 6 -43 37v581c0 31 15 37 43 37h15c30 0 45 -6 45 -37v-245h341v245c0 31 15 37 43 37h15c30 0 45 -6 45 -37v-581c0 -31 -15 -37 -45 -37h-15c-28 0 -43 6 -43 37v246h-341v-246c0 -31 -15 -37 -45 -37h-15z" />
    <glyph glyph-name="afii10032" unicode="&#x41e;" horiz-adv-x="721" 
d="M360 -13c-193 0 -327 138 -327 335c0 198 137 338 328 338c193 0 327 -138 327 -336s-136 -337 -328 -337zM361 78c131 0 223 100 223 244s-93 247 -224 247s-223 -100 -223 -245c0 -144 93 -246 224 -246z" />
    <glyph glyph-name="afii10019" unicode="&#x412;" horiz-adv-x="614" 
d="M124 0c-33 0 -55 13 -55 48v551c0 35 22 48 55 48h213c141 0 218 -59 218 -168c0 -70 -40 -117 -114 -139c96 -22 140 -83 140 -159c0 -121 -77 -181 -246 -181h-211zM171 83h162c104 0 142 31 142 106c0 68 -43 102 -139 102h-165v-208zM171 365h158
c76 0 119 40 119 102c0 64 -37 97 -121 97h-156v-199z" />
    <glyph glyph-name="afii10020" unicode="&#x413;" horiz-adv-x="519" 
d="M69 33v566c0 35 22 48 55 48h340c32 0 47 -6 44 -33l-3 -26c-4 -28 -20 -33 -52 -33h-281v-522c0 -31 -15 -37 -45 -37h-14c-29 0 -44 6 -44 37z" />
    <glyph glyph-name="afii10049" unicode="&#x42f;" horiz-adv-x="610" 
d="M60 453c0 128 84 194 242 194h184c33 0 55 -13 55 -48v-566c0 -34 -15 -37 -43 -37h-14c-30 0 -45 9 -45 37v220h-111l-171 -222c-18 -24 -26 -35 -67 -35c-49 0 -68 27 -56 42l181 230c-102 20 -155 86 -155 185zM304 334h136v228h-133c-95 0 -143 -39 -143 -114
c0 -70 45 -114 140 -114z" />
    <glyph glyph-name="afii10021" unicode="&#x414;" horiz-adv-x="757" 
d="M55 92h35c76 132 132 269 132 518c0 31 15 37 45 37h325c30 0 45 -6 45 -37v-518h55c30 0 45 -6 45 -37v-185c0 -31 -15 -37 -45 -37h-15c-28 0 -40 6 -40 37v130h-527v-130c0 -31 -12 -37 -42 -37h-15c-28 0 -43 6 -43 37v185c0 31 15 37 45 37zM196 92h338v463h-220
c-6 -218 -51 -340 -118 -463z" />
    <glyph glyph-name="afii10033" unicode="&#x41f;" horiz-adv-x="675" 
d="M112 647h449c30 0 45 -6 45 -37v-577c0 -31 -15 -37 -45 -37h-15c-28 0 -43 6 -43 37v522h-331v-522c0 -31 -15 -37 -45 -37h-15c-28 0 -43 6 -43 37v577c0 31 15 37 43 37z" />
    <glyph glyph-name="afii10034" unicode="&#x420;" horiz-adv-x="569" 
d="M171 316h118c99 0 150 43 150 123c0 81 -51 123 -149 123h-119v-246zM172 233v-200c0 -28 -15 -37 -45 -37h-15c-28 0 -43 6 -43 37v566c0 35 22 48 55 48h167c160 0 251 -73 251 -206c0 -136 -88 -208 -255 -208h-115z" />
    <glyph glyph-name="afii10030" unicode="&#x41c;" horiz-adv-x="749" 
d="M125 -4h-16c-28 0 -40 6 -40 37v571c0 35 23 47 59 47h27c40 0 47 -6 63 -43l157 -354l158 354c17 38 24 43 62 43h25c37 0 61 -12 61 -47v-571c0 -31 -13 -37 -43 -37h-14c-29 0 -41 6 -41 37v485l-148 -335c-12 -26 -17 -31 -61 -31c-45 0 -49 5 -60 31l-147 332v-482
c0 -31 -12 -37 -42 -37z" />
    <glyph glyph-name="afii10028" unicode="&#x41a;" horiz-adv-x="556" 
d="M172 314v-281c0 -31 -15 -37 -45 -37h-15c-28 0 -43 6 -43 37v581c0 31 15 37 43 37h15c30 0 45 -6 45 -37v-270l262 277c13 14 37 30 62 30c12 0 25 -4 37 -13c10 -8 17 -26 8 -36l-255 -271l257 -281c10 -10 8 -16 4 -23c-7 -13 -21 -31 -55 -31c-22 0 -39 8 -56 29z
" />
    <glyph glyph-name="afii10017" unicode="&#x410;" horiz-adv-x="630" 
d="M208 273h209l-104 274zM504 32l-62 158h-259l-61 -158c-14 -35 -31 -37 -53 -37c-30 0 -61 19 -51 45l225 580c11 29 24 33 71 33c48 0 60 -4 71 -33l227 -580c10 -26 -22 -45 -53 -45c-23 0 -41 2 -55 37z" />
    <glyph glyph-name="afii10046" unicode="&#x42c;" horiz-adv-x="562" 
d="M279 331h-108v-246h109c98 0 149 42 149 123c0 80 -51 123 -150 123zM172 614v-200h105c167 0 255 -72 255 -208c0 -133 -91 -206 -251 -206h-157c-33 0 -55 13 -55 48v566c0 31 15 37 43 37h15c30 0 45 -9 45 -37z" />
    <glyph glyph-name="afii10045" unicode="&#x42b;" horiz-adv-x="786" 
d="M279 331h-108v-246h109c98 0 149 42 149 123c0 80 -51 123 -150 123zM172 614v-200h105c167 0 255 -72 255 -208c0 -133 -91 -206 -251 -206h-157c-33 0 -55 13 -55 48v566c0 31 15 37 43 37h15c30 0 45 -9 45 -37zM658 -4c-29 0 -44 6 -44 37v581c0 31 15 37 44 37h14
c30 0 45 -6 45 -37v-581c0 -31 -15 -37 -45 -37h-14z" />
    <glyph glyph-name="afii10042" unicode="&#x428;" horiz-adv-x="1003" 
d="M889 0h-777c-28 0 -43 6 -43 37v577c0 31 15 37 43 37h15c30 0 45 -6 45 -37v-522h278v522c0 31 15 37 43 37h15c30 0 45 -6 45 -37v-522h278v522c0 31 15 37 43 37h15c30 0 45 -6 45 -37v-577c0 -31 -15 -37 -45 -37z" />
    <glyph glyph-name="a" unicode="a" horiz-adv-x="523" 
d="M221 60c86 0 148 54 148 130v37l-27 -1c-140 -5 -212 -31 -212 -96c0 -43 34 -70 91 -70zM369 289v10c0 73 -40 113 -117 113c-73 0 -103 -34 -137 -78c-12 -15 -60 -10 -60 38c0 55 68 121 204 121s208 -70 208 -192v-281c0 -20 -18 -25 -36 -25c-35 0 -60 19 -61 78
c-36 -52 -99 -84 -173 -84c-103 0 -164 55 -164 137c0 111 106 159 312 163h24z" />
    <glyph glyph-name="b" unicode="b" 
d="M159 259v-30c0 -105 73 -160 150 -160c86 0 148 71 148 171c0 102 -60 171 -150 171c-80 0 -148 -60 -148 -152zM160 639v-236c27 47 86 90 165 90c133 0 228 -103 228 -254c0 -153 -96 -252 -225 -252c-76 0 -131 34 -169 90c-1 -67 -32 -83 -62 -83c-20 0 -36 7 -36 19
v626c0 36 18 37 44 37h11c25 0 44 -1 44 -37z" />
    <glyph glyph-name="c" unicode="c" horiz-adv-x="516" 
d="M282 -13c-145 0 -250 106 -250 254c0 146 106 252 250 252c143 0 206 -84 206 -138c0 -48 -53 -56 -59 -39c-21 54 -63 94 -145 94c-90 0 -158 -71 -158 -169c0 -99 67 -171 158 -171c81 0 127 40 145 94c6 19 59 10 59 -38c0 -64 -64 -139 -206 -139z" />
    <glyph glyph-name="d" unicode="d" 
d="M426 222v29c0 110 -74 160 -148 160c-90 0 -150 -68 -150 -171c0 -100 62 -171 148 -171c80 0 150 61 150 153zM425 78c-37 -57 -93 -91 -168 -91c-129 0 -225 101 -225 253s95 253 228 253c80 0 139 -38 166 -82v231c0 36 19 37 44 37h11c26 0 44 -1 44 -37v-618
c0 -22 -16 -27 -36 -27c-28 0 -58 3 -64 81z" />
    <glyph glyph-name="e" unicode="e" horiz-adv-x="540" 
d="M125 281h288c-5 83 -56 137 -136 137c-79 0 -140 -57 -152 -137zM125 214c7 -88 72 -149 163 -149c84 0 125 37 151 80c10 16 52 0 52 -40c0 -51 -74 -118 -205 -118c-152 0 -254 101 -254 251c0 146 104 255 246 255c139 0 231 -98 231 -242v-8c0 -21 -7 -29 -30 -29
h-354z" />
    <glyph glyph-name="f" unicode="f" horiz-adv-x="342" 
d="M108 400h-56c-32 0 -44 3 -44 28v27c0 24 12 26 44 26h56v36c0 121 57 177 153 177c74 0 105 -25 105 -59c0 -28 -19 -49 -32 -40c-16 10 -35 19 -66 19c-43 0 -64 -30 -64 -98v-35h85c32 0 44 -3 41 -27l-3 -27c-3 -24 -15 -27 -47 -27h-74v-367c0 -36 -17 -37 -43 -37
h-10c-26 0 -45 1 -45 37v367z" />
    <glyph glyph-name="g" unicode="g" horiz-adv-x="486" 
d="M237 204c66 0 112 44 112 109c0 64 -46 109 -114 109c-65 0 -111 -44 -111 -109s47 -109 113 -109zM91 -63c6 -32 35 -66 143 -66c86 0 144 18 144 66c0 25 -25 42 -88 50c-140 18 -174 50 -174 94c0 30 15 53 40 70c-77 25 -126 85 -126 160c0 101 87 182 206 182
c43 0 82 -11 115 -29l26 46c22 39 40 44 65 44c29 0 47 -21 47 -37c0 -4 -1 -8 -4 -11l-81 -84c26 -30 41 -67 41 -108c0 -101 -86 -175 -208 -175c-6 0 -12 0 -18 1c-14 -13 -20 -17 -20 -29c0 -19 15 -31 126 -43c106 -11 150 -66 150 -133c0 -91 -84 -136 -243 -136
s-235 47 -235 143c0 20 6 33 35 38c39 7 51 0 59 -43z" />
    <glyph glyph-name="h" unicode="h" horiz-adv-x="561" 
d="M160 643v-238c32 51 84 88 159 88c127 0 186 -88 186 -208v-252c0 -36 -19 -37 -44 -37h-11c-26 0 -44 1 -44 37v241c0 83 -42 132 -111 132c-82 0 -135 -54 -135 -141v-232c0 -36 -19 -37 -44 -37h-11c-26 0 -44 1 -44 37v610c0 36 18 37 44 37h11c25 0 44 -1 44 -37z
" />
    <glyph glyph-name="i" unicode="i" horiz-adv-x="230" 
d="M115 584c-37 0 -59 20 -59 55c0 36 22 56 60 56c37 0 58 -20 58 -56s-21 -55 -59 -55zM110 -4c-26 0 -45 1 -45 37v415c0 36 19 38 45 38h10c26 0 44 -1 44 -38v-415c0 -36 -18 -37 -44 -37h-10z" />
    <glyph glyph-name="j" unicode="j" horiz-adv-x="230" 
d="M115 584c-37 0 -59 20 -59 55c0 36 22 56 60 56c37 0 58 -20 58 -56s-21 -55 -59 -55zM-1 -147c0 8 0 29 13 29c44 0 53 8 53 77v489c0 36 19 38 45 38h10c26 0 44 -1 44 -38v-495c0 -98 -27 -153 -109 -153c-38 0 -56 24 -56 53z" />
    <glyph glyph-name="k" unicode="k" horiz-adv-x="474" 
d="M160 266l167 186c20 20 34 35 63 35c44 0 57 -26 47 -40l-175 -193l199 -216c11 -15 -5 -43 -50 -43c-33 0 -43 14 -63 36l-188 204v-202c0 -36 -19 -37 -44 -37h-11c-26 0 -44 1 -44 37v609c0 36 19 37 45 37h10c26 0 44 -1 44 -37v-376z" />
    <glyph glyph-name="l" unicode="l" horiz-adv-x="230" 
d="M65 33v609c0 36 19 37 45 37h10c26 0 44 -1 44 -37v-609c0 -36 -18 -37 -44 -37h-10c-26 0 -45 1 -45 37z" />
    <glyph glyph-name="m" unicode="m" horiz-adv-x="869" 
d="M486 265v-232c0 -36 -18 -37 -44 -37h-10c-26 0 -45 1 -45 37v241c0 83 -38 132 -102 132c-76 0 -125 -54 -125 -141v-232c0 -36 -19 -37 -44 -37h-11c-26 0 -44 1 -44 37v427c0 18 16 26 36 26c29 0 59 -17 63 -83c33 48 82 90 148 90c78 0 132 -37 157 -101
c33 56 87 101 167 101c122 0 181 -74 181 -198v-262c0 -36 -18 -37 -44 -37h-10c-27 0 -45 1 -45 37v241c0 83 -39 132 -103 132c-76 0 -125 -54 -125 -141z" />
    <glyph glyph-name="n" unicode="n" horiz-adv-x="561" 
d="M160 403c31 53 84 90 159 90c127 0 186 -88 186 -208v-252c0 -36 -19 -37 -44 -37h-11c-26 0 -44 1 -44 37v241c0 83 -42 132 -111 132c-82 0 -135 -54 -135 -141v-232c0 -36 -19 -37 -44 -37h-11c-26 0 -44 1 -44 37v427c0 18 16 26 36 26c29 0 59 -17 63 -83z" />
    <glyph glyph-name="o" unicode="o" horiz-adv-x="568" 
d="M284 -13c-149 0 -252 105 -252 254c0 147 104 252 253 252c147 0 251 -106 251 -254c0 -147 -104 -252 -252 -252zM284 68c92 0 160 73 160 171c0 100 -67 173 -160 173c-92 0 -161 -72 -161 -171s69 -173 161 -173z" />
    <glyph glyph-name="p" unicode="p" 
d="M159 251v-30c0 -92 68 -152 148 -152c90 0 150 69 150 171c0 100 -62 171 -148 171c-77 0 -150 -55 -150 -160zM160 77v-236c0 -36 -19 -37 -44 -37h-11c-26 0 -44 1 -44 37v626c0 12 16 19 36 19c30 0 61 -16 62 -83c38 56 93 90 169 90c129 0 225 -99 225 -252
c0 -151 -95 -254 -228 -254c-79 0 -138 43 -165 90z" />
    <glyph glyph-name="q" unicode="q" 
d="M426 222v29c0 110 -74 160 -148 160c-90 0 -150 -68 -150 -171c0 -100 62 -171 148 -171c80 0 150 61 150 153zM426 411c4 60 34 75 62 75c20 0 36 -5 36 -27v-618c0 -36 -18 -37 -44 -37h-11c-25 0 -44 1 -44 37v237c-37 -57 -93 -91 -168 -91c-129 0 -225 101 -225 253
s95 253 228 253c80 0 139 -38 166 -82z" />
    <glyph glyph-name="r" unicode="r" horiz-adv-x="372" 
d="M159 393c18 64 61 100 124 100c48 0 77 -24 77 -56c0 -50 -16 -57 -24 -57c-19 0 -32 19 -74 19c-78 0 -102 -76 -102 -187v-169c0 -36 -19 -47 -44 -47h-11c-26 0 -44 11 -44 47v424c0 12 16 19 36 19c30 0 58 -16 62 -93z" />
    <glyph glyph-name="s" unicode="s" horiz-adv-x="464" 
d="M229 -12c-134 0 -203 56 -203 102c0 31 26 58 39 45c32 -32 68 -72 162 -72c68 0 106 25 106 65c0 49 -45 58 -124 75c-71 15 -169 37 -169 139c0 90 75 151 192 151c123 0 185 -52 185 -97c0 -32 -21 -57 -42 -38c-37 33 -76 60 -139 60c-68 0 -104 -26 -104 -66
c0 -44 42 -54 120 -71c74 -16 177 -38 177 -142c0 -92 -76 -151 -200 -151z" />
    <glyph glyph-name="t" unicode="t" horiz-adv-x="377" 
d="M356 51c0 -37 -25 -64 -105 -64c-103 0 -148 53 -148 159v254h-45c-31 0 -43 3 -43 27v27c0 24 12 27 43 27h45v84c0 34 17 37 44 37h10c26 0 43 0 43 -37v-84h113c31 0 42 -2 39 -26l-3 -27c-3 -25 -15 -28 -46 -28h-104v-243c0 -60 17 -89 64 -89c35 0 63 10 79 10
c9 0 14 -4 14 -27z" />
    <glyph glyph-name="u" unicode="u" horiz-adv-x="561" 
d="M401 79c-31 -53 -84 -90 -159 -90c-127 0 -186 88 -186 208v252c0 36 19 37 44 37h11c26 0 44 -1 44 -37v-241c0 -83 42 -132 111 -132c82 0 135 54 135 141v232c0 36 19 37 44 37h11c26 0 44 -1 44 -37v-427c0 -18 -16 -26 -36 -26c-29 0 -59 17 -63 83z" />
    <glyph glyph-name="v" unicode="v" horiz-adv-x="499" 
d="M124 440l126 -351l127 351c16 44 30 46 58 46s50 -17 50 -28c0 -3 -1 -6 -2 -9l-172 -424c-12 -30 -29 -31 -61 -31c-34 0 -49 1 -60 29l-174 427c-1 3 -2 5 -2 7c0 12 23 29 51 29s43 -2 59 -46z" />
    <glyph glyph-name="w" unicode="w" horiz-adv-x="710" 
d="M129 440l77 -344l92 291c10 33 24 35 61 35c36 0 50 -2 60 -35l89 -289l74 342c10 46 30 46 58 46s50 -17 50 -28c0 -3 -1 -6 -2 -9l-117 -423c-8 -30 -24 -32 -60 -32c-41 0 -51 2 -61 35l-93 291l-96 -291c-11 -33 -21 -35 -60 -35c-36 0 -53 2 -61 32l-118 424
c-1 3 -1 5 -1 7c0 12 22 29 50 29s48 0 58 -46z" />
    <glyph glyph-name="x" unicode="x" horiz-adv-x="489" 
d="M242 188l-104 -151c-26 -38 -38 -42 -71 -42c-25 0 -60 16 -42 40l156 205l-154 206c-19 23 17 40 42 40c33 0 43 -3 70 -41l107 -153l105 153c26 38 37 41 70 41c25 0 60 -16 42 -40l-155 -206l154 -205c18 -24 -17 -40 -42 -40c-33 0 -44 3 -71 41
c0 0 -107 153 -107 152z" />
    <glyph glyph-name="y" unicode="y" horiz-adv-x="498" 
d="M483 449l-196 -514c-39 -102 -81 -135 -151 -135c-61 0 -85 35 -85 66c0 15 8 34 27 29c50 -13 82 -30 122 67l27 65c-29 0 -35 4 -45 28l-166 395c-4 9 -1 14 4 19c9 8 25 17 45 17c28 0 42 -3 59 -46l134 -342l119 342c15 44 30 46 58 46c20 0 36 -9 45 -17
c5 -5 7 -11 3 -20z" />
    <glyph glyph-name="z" unicode="z" horiz-adv-x="482" 
d="M76 0c-30 0 -41 8 -41 28v18c0 21 8 30 28 54l252 302h-235c-30 0 -43 1 -43 26v27c0 24 13 26 43 26h321c31 0 41 -7 41 -27v-16c0 -19 -8 -29 -27 -52l-257 -306h249c30 0 43 -2 43 -27v-26c0 -25 -13 -27 -43 -27h-331z" />
    <glyph glyph-name="space" unicode=" " horiz-adv-x="170" 
 />
    <glyph glyph-name="exclam" unicode="!" horiz-adv-x="260" 
d="M123 -7c-35 0 -54 19 -54 54v12c0 35 19 55 54 55h13c37 0 55 -20 55 -55v-12c0 -35 -18 -54 -55 -54h-13zM83 223v393c0 36 15 37 41 37h10c26 0 40 -1 40 -37v-393c0 -36 -14 -37 -40 -37h-10c-26 0 -41 1 -41 37z" />
    <glyph glyph-name="quotedbl" unicode="&#x22;" horiz-adv-x="389" 
d="M104 445c-17 0 -21 10 -24 31l-19 142c-1 6 -1 11 -1 16c0 35 13 48 50 48c38 0 51 -13 51 -48c0 -5 0 -10 -1 -16l-19 -142c-4 -21 -8 -31 -24 -31h-13zM271 445c-17 0 -21 10 -24 31l-19 142c-1 6 -1 11 -1 16c0 35 13 48 50 48c38 0 51 -13 51 -48c0 -5 0 -10 -1 -16
l-19 -142c-4 -21 -8 -31 -24 -31h-13z" />
    <glyph glyph-name="numbersign" unicode="#" horiz-adv-x="690" 
d="M426 340h-134l-14 -90h134zM194 181h-149c-5 0 -10 5 -10 10v49c0 5 5 10 10 10h159l14 90h-123c-5 0 -10 5 -10 10v49c0 5 5 10 10 10h133l26 171c1 6 9 10 14 10h54c5 0 7 -4 6 -10l-26 -171h134l26 171c1 6 9 10 14 10h54c5 0 7 -4 6 -10l-26 -171h135
c5 0 10 -5 10 -10v-49c0 -5 -5 -10 -10 -10h-145l-14 -90h109c5 0 10 -5 10 -10v-49c0 -5 -5 -10 -10 -10h-119l-26 -171c-1 -6 -9 -10 -14 -10h-54c-5 0 -7 4 -6 10l26 171h-134l-26 -171c-1 -6 -9 -10 -14 -10h-54c-5 0 -7 4 -6 10z" />
    <glyph glyph-name="dollar" unicode="$" horiz-adv-x="550" 
d="M319 710l-1 -53c113 -13 174 -71 174 -112c0 -37 -29 -68 -47 -51c-45 42 -89 81 -174 81c-81 0 -134 -39 -134 -99c0 -71 63 -82 153 -103c110 -25 216 -68 216 -193c0 -104 -70 -173 -188 -189l-1 -75c0 -34 -13 -38 -41 -38h-6c-28 0 -40 3 -40 38l1 72
c-136 10 -211 78 -211 128c0 34 34 64 47 51c46 -48 102 -95 195 -95c90 0 141 37 141 101c0 73 -76 90 -162 110c-100 23 -204 58 -204 189c0 99 77 172 194 185l1 53c0 34 13 37 40 37h7c28 0 40 -3 40 -37z" />
    <glyph glyph-name="percent" unicode="%" horiz-adv-x="735" 
d="M184 344c-89 0 -155 65 -155 151v9c0 86 67 153 156 153c90 0 156 -65 156 -151v-9c0 -86 -68 -153 -157 -153zM550 -6c-90 0 -156 65 -156 151v9c0 86 68 153 157 153s155 -65 155 -151v-9c0 -86 -67 -153 -156 -153zM185 407c46 0 79 35 79 86v15c0 51 -34 87 -80 87
s-79 -35 -79 -87v-15c0 -50 34 -86 80 -86zM551 57c45 0 79 35 79 86v15c0 51 -34 87 -80 87s-79 -35 -79 -87v-15c0 -50 34 -86 80 -86zM626 569l-495 -568c-13 -15 -55 -1 -55 27c0 18 7 30 29 53l495 568c13 15 55 1 55 -27c0 -18 -7 -30 -29 -53z" />
    <glyph glyph-name="ampersand" unicode="&#x26;" horiz-adv-x="667" 
d="M271 394c82 23 119 56 119 109c0 47 -35 83 -84 83c-57 0 -87 -39 -87 -87c0 -42 19 -72 52 -105zM425 145l-194 175c-67 -22 -114 -61 -114 -130c0 -79 60 -125 145 -125c65 0 121 32 163 80zM325 350l151 -136c22 40 36 82 49 131c12 42 30 56 57 56
c30 0 46 -18 40 -43c-19 -81 -45 -139 -86 -199l121 -108c11 -9 -2 -56 -40 -56c-30 0 -39 5 -65 30l-69 66c-60 -66 -137 -104 -228 -104c-140 0 -234 70 -234 195c0 95 62 155 163 186c-33 35 -58 78 -58 131c0 90 73 161 181 161c98 0 168 -64 168 -152
c0 -76 -54 -129 -150 -158z" />
    <glyph glyph-name="quotesingle" unicode="'" horiz-adv-x="222" 
d="M104 445c-17 0 -21 10 -24 31l-19 142c-1 6 -1 11 -1 16c0 35 13 48 50 48c38 0 51 -13 51 -48c0 -5 0 -10 -1 -16l-19 -142c-4 -21 -8 -31 -24 -31h-13z" />
    <glyph glyph-name="parenleft" unicode="(" horiz-adv-x="377" 
d="M25 228c0 267 170 424 292 424c18 0 35 -1 35 -36c0 -21 -8 -31 -19 -35c-129 -49 -207 -152 -207 -353s78 -304 207 -353c11 -4 19 -14 19 -35c0 -35 -17 -36 -35 -36c-122 0 -292 155 -292 424z" />
    <glyph glyph-name="parenright" unicode=")" horiz-adv-x="377" 
d="M352 228c0 -269 -170 -424 -292 -424c-18 0 -35 1 -35 36c0 21 8 31 19 35c129 49 207 152 207 353s-78 304 -207 353c-11 4 -19 14 -19 35c0 35 17 36 35 36c122 0 292 -157 292 -424z" />
    <glyph glyph-name="asterisk" unicode="*" horiz-adv-x="421" 
d="M386 523c0 -15 -15 -19 -20 -20l-109 -14l82 -76c5 -5 8 -10 8 -15c0 -6 -3 -12 -9 -16l-50 -36c-4 -3 -8 -4 -12 -4c-8 0 -15 5 -19 14l-46 101l-47 -101c-4 -8 -9 -14 -16 -14c-5 0 -10 0 -15 4l-50 36c-6 4 -9 9 -9 15s4 13 11 20l79 72l-109 14c-5 1 -20 5 -20 20
c0 2 0 4 1 6l19 58c3 8 10 14 17 14c5 0 9 -1 13 -3l98 -55l-22 110c-1 7 0 26 20 26h60c20 0 20 -19 19 -26l-22 -110l98 55c5 3 11 2 16 2c6 0 12 -6 14 -13l19 -58c1 -2 1 -4 1 -6z" />
    <glyph glyph-name="plus" unicode="+" horiz-adv-x="538" 
d="M227 224h-145c-32 0 -43 4 -43 27v26c0 23 11 27 43 27h145v158c0 31 15 33 38 33h8c22 0 38 -2 38 -33v-158h145c32 0 43 -4 43 -27v-26c0 -23 -11 -27 -43 -27h-145v-167c0 -31 -16 -33 -38 -33h-8c-23 0 -38 2 -38 33v167z" />
    <glyph glyph-name="comma" unicode="," horiz-adv-x="222" 
d="M77 -122c-13 -26 -72 -7 -60 21l45 101v79c0 36 16 39 39 39h26c25 0 42 -3 42 -39v-29c0 -17 -7 -34 -23 -60z" />
    <glyph glyph-name="hyphen" unicode="-" horiz-adv-x="393" 
d="M84 198c-28 0 -43 5 -43 28v34c0 23 15 29 43 29h225c29 0 43 -6 43 -29v-34c0 -23 -14 -28 -43 -28h-225z" />
    <glyph glyph-name="period" unicode="." horiz-adv-x="222" 
d="M104 -7c-35 0 -54 19 -54 54v12c0 35 18 55 54 55h13c37 0 55 -20 55 -55v-12c0 -35 -19 -54 -55 -54h-13z" />
    <glyph glyph-name="slash" unicode="/" horiz-adv-x="345" 
d="M325 568l-231 -748c-5 -15 -13 -22 -26 -22c-22 0 -56 5 -56 46c0 9 3 23 8 40l231 748c5 15 13 22 26 22c22 0 56 -5 56 -46c0 -9 -3 -23 -8 -40z" />
    <glyph glyph-name="zero" unicode="0" horiz-adv-x="635" 
d="M317 -13c-168 0 -269 96 -269 283v106c0 187 103 284 269 284c168 0 270 -96 270 -283v-105c0 -187 -103 -285 -270 -285zM317 74c107 0 167 57 167 193v112c0 136 -62 196 -167 196s-165 -58 -165 -194v-113c0 -136 61 -194 165 -194z" />
    <glyph glyph-name="one" unicode="1" horiz-adv-x="366" 
d="M167 566v49c0 31 15 37 44 37h13c30 0 45 -6 45 -37v-583c0 -31 -15 -37 -45 -37h-13c-29 0 -44 6 -44 37v442h-109c-30 0 -36 14 -36 42v7c0 28 6 43 36 43h109z" />
    <glyph glyph-name="two" unicode="2" horiz-adv-x="543" 
d="M131 92h328c34 0 49 -8 49 -34v-26c0 -27 -15 -32 -49 -32h-360c-45 0 -64 15 -64 56v47c0 254 361 205 361 362c0 67 -49 107 -132 107c-87 0 -125 -43 -158 -113c-8 -17 -68 -20 -68 39c0 67 80 162 233 162c141 0 226 -73 226 -193c0 -248 -366 -171 -366 -364v-11z
" />
    <glyph glyph-name="three" unicode="3" horiz-adv-x="546" 
d="M179 352l184 203h-268c-30 0 -46 4 -46 32v27c0 28 16 33 46 33h317c54 0 64 -13 64 -39v-18c0 -22 -7 -42 -27 -65l-144 -159c145 -9 200 -105 200 -185c0 -121 -93 -194 -251 -194c-157 0 -238 87 -238 145c0 38 25 55 44 56c12 1 14 -2 19 -11
c35 -70 92 -106 175 -106c92 0 150 44 150 114c0 75 -51 112 -158 112h-18c-36 0 -49 5 -49 27v28z" />
    <glyph glyph-name="four" unicode="4" horiz-adv-x="594" 
d="M127 255h238v313zM458 257h76c31 0 44 -3 41 -30l-3 -25c-3 -27 -18 -29 -49 -29h-65v-141c0 -31 -14 -37 -44 -37h-11c-26 0 -42 10 -42 37v141h-279c-35 0 -49 10 -49 38v32c0 20 10 38 29 64l231 299c27 35 39 46 88 46c56 0 77 -5 77 -47v-348z" />
    <glyph glyph-name="five" unicode="5" horiz-adv-x="538" 
d="M143 374c38 18 82 29 133 29c140 0 232 -79 232 -204c0 -129 -96 -212 -251 -212c-141 0 -231 73 -231 128c0 35 31 59 47 44c58 -53 90 -89 184 -89c95 0 155 50 155 128s-54 125 -146 125c-70 0 -103 -15 -143 -39c-10 -6 -15 -9 -25 -9c-28 0 -46 10 -46 50v274
c0 35 20 48 53 48h320c32 0 47 -4 44 -32l-3 -25c-3 -27 -20 -31 -52 -31h-271v-185z" />
    <glyph glyph-name="six" unicode="6" horiz-adv-x="591" 
d="M142 357v-18c119 140 401 95 401 -131v-5c0 -128 -95 -216 -235 -216c-184 0 -260 115 -260 333v16c0 208 100 324 267 324c136 0 201 -64 201 -115c0 -39 -37 -51 -47 -41c-39 36 -76 71 -155 71c-106 0 -172 -77 -172 -218zM444 208c0 171 -293 173 -293 0
c0 -85 64 -139 153 -139c85 0 140 48 140 139z" />
    <glyph glyph-name="seven" unicode="7" horiz-adv-x="530" 
d="M106 37l291 518h-329c-30 0 -46 4 -46 32v27c0 28 16 33 46 33h378c54 0 64 -13 64 -39v-18c0 -22 -15 -48 -30 -75l-261 -484c-21 -30 -32 -36 -61 -36c-23 0 -54 13 -54 33c0 3 0 6 2 9z" />
    <glyph glyph-name="eight" unicode="8" horiz-adv-x="583" 
d="M292 67c100 0 152 33 152 113c0 69 -57 115 -153 115c-97 0 -153 -45 -153 -115c0 -76 57 -113 154 -113zM292 369c86 0 135 39 135 104c0 84 -49 108 -136 108c-90 0 -136 -22 -136 -108c0 -62 51 -104 137 -104zM168 333c-76 25 -112 77 -112 146c0 127 93 181 236 181
c145 0 233 -50 233 -179c0 -69 -36 -121 -110 -147c87 -27 130 -85 130 -162c0 -128 -101 -184 -254 -184c-158 0 -254 52 -254 184c0 75 45 133 131 161z" />
    <glyph glyph-name="nine" unicode="9" horiz-adv-x="591" 
d="M277 72c106 0 172 77 172 218v18c-119 -141 -401 -96 -401 131v5c0 128 95 216 235 216c184 0 260 -115 260 -333v-16c0 -208 -100 -324 -267 -324c-136 0 -201 64 -201 115c0 39 37 51 47 41c39 -36 76 -71 155 -71zM147 439c0 -171 293 -173 293 0
c0 85 -64 139 -153 139c-85 0 -140 -48 -140 -139z" />
    <glyph glyph-name="colon" unicode=":" horiz-adv-x="246" 
d="M116 318c-35 0 -54 19 -54 54v12c0 35 18 54 54 54h13c37 0 55 -19 55 -54v-12c0 -35 -19 -54 -55 -54h-13zM116 -7c-35 0 -54 19 -54 54v12c0 35 18 55 54 55h13c37 0 55 -20 55 -55v-12c0 -35 -19 -54 -55 -54h-13z" />
    <glyph glyph-name="semicolon" unicode=";" horiz-adv-x="246" 
d="M116 318c-35 0 -54 19 -54 54v12c0 35 18 54 54 54h13c37 0 55 -19 55 -54v-12c0 -35 -19 -54 -55 -54h-13zM89 -122c-13 -26 -72 -7 -60 21l45 101v79c0 36 16 39 39 39h26c25 0 42 -3 42 -39v-29c0 -17 -7 -34 -23 -60z" />
    <glyph glyph-name="less" unicode="&#x3c;" horiz-adv-x="464" 
d="M74 319l308 166c10 5 37 -2 37 -41c0 -31 -13 -44 -37 -56l-239 -123l239 -124c24 -12 37 -25 37 -56c0 -39 -27 -46 -37 -41l-308 165c-18 10 -30 22 -30 55s12 45 30 55z" />
    <glyph glyph-name="equal" unicode="=" horiz-adv-x="538" 
d="M84 130c-32 0 -43 7 -43 29v20c0 22 11 29 43 29h370c32 0 43 -7 43 -29v-20c0 -22 -11 -29 -43 -29h-370zM84 323c-32 0 -43 7 -43 29v20c0 22 11 29 43 29h370c32 0 43 -7 43 -29v-20c0 -22 -11 -29 -43 -29h-370z" />
    <glyph glyph-name="greater" unicode="&#x3e;" horiz-adv-x="463" 
d="M389 210l-308 -166c-10 -5 -37 2 -37 41c0 31 13 44 37 56l239 123l-239 124c-24 12 -37 25 -37 56c0 39 27 46 37 41l308 -165c18 -10 30 -22 30 -55s-12 -45 -30 -55z" />
    <glyph glyph-name="question" unicode="?" horiz-adv-x="479" 
d="M215 185c-25 0 -42 3 -42 34c0 184 182 158 182 262c0 57 -41 94 -113 94c-103 0 -123 -61 -140 -123c-6 -22 -72 -17 -72 41c0 74 66 166 214 166c130 0 209 -71 209 -170c0 -164 -197 -141 -197 -282c0 -21 -18 -22 -41 -22zM210 -7c-35 0 -54 19 -54 54v12
c0 35 19 55 54 55h14c36 0 55 -20 55 -55v-12c0 -35 -19 -54 -55 -54h-14z" />
    <glyph glyph-name="at" unicode="@" horiz-adv-x="739" 
d="M425 180l3 28c4 42 -31 70 -63 70c-47 0 -85 -39 -85 -97c0 -42 25 -69 60 -69c42 0 81 27 85 68zM355 347c38 0 68 -20 86 -46c10 35 33 44 54 44c18 0 29 -7 27 -22l-18 -146c-1 -11 -2 -22 -2 -32c0 -31 10 -50 43 -50c50 0 99 76 99 178c0 124 -86 208 -240 208
c-170 0 -300 -135 -300 -319c0 -151 103 -239 249 -239c63 0 125 23 167 48c10 6 24 13 40 13c22 0 27 -14 27 -35c0 -2 -1 -4 -1 -4c-55 -43 -142 -79 -239 -79c-187 0 -312 114 -312 286c0 238 167 386 376 386c186 0 293 -103 293 -256s-75 -240 -180 -240
c-50 0 -85 32 -91 70c-19 -41 -68 -69 -127 -69c-63 0 -108 49 -108 130c0 102 71 174 157 174z" />
    <glyph glyph-name="dagger" unicode="&#x2020;" horiz-adv-x="518" 
d="M234 442l-27 189c-7 40 -9 54 52 54c62 0 59 -14 52 -54l-27 -189l155 26c40 7 54 7 54 -52c0 -56 -14 -58 -54 -51l-156 26l34 -491c-1 -21 -9 -29 -29 -29h-57c-21 0 -29 8 -30 29l34 491l-156 -26c-39 -7 -54 -5 -54 51c0 59 13 59 54 52z" />
    <glyph glyph-name="degree" unicode="&#xb0;" horiz-adv-x="399" 
d="M198 352c-90 0 -155 64 -155 154s68 155 158 155s155 -64 155 -154s-68 -155 -158 -155zM201 415c48 0 85 37 85 92c0 53 -39 91 -87 91c-49 0 -86 -37 -86 -92c0 -53 40 -91 88 -91z" />
    <glyph glyph-name="bullet" unicode="&#x2022;" horiz-adv-x="334" 
d="M167 129c-64 0 -113 50 -113 114s49 116 113 116s114 -52 114 -116c0 -63 -51 -114 -114 -114z" />
    <glyph glyph-name="paragraph" unicode="&#xb6;" horiz-adv-x="620" 
d="M506 -197c-22 0 -33 12 -33 36v716h-57v-234c0 -24 -11 -36 -33 -36h-120c-152 0 -235 61 -235 180c0 120 78 182 231 182h258c23 0 35 -12 35 -36v-772c0 -24 -12 -36 -35 -36h-11z" />
    <glyph glyph-name="registered" unicode="&#xae;" horiz-adv-x="557" 
d="M243 503h43c25 0 40 12 40 31c0 21 -15 31 -42 31h-41v-62zM278 279c-124 0 -212 89 -212 214c0 124 90 217 213 217c124 0 212 -90 212 -214c0 -125 -91 -217 -213 -217zM279 316c102 0 170 73 170 178c0 102 -71 177 -172 177s-169 -72 -169 -176
c0 -103 71 -179 171 -179zM320 468l51 -61h-1c3 -3 4 -6 4 -9c0 -9 -11 -17 -28 -17c-16 0 -20 2 -33 19l-46 62h-23v-62c0 -17 -8 -18 -23 -18h-9c-13 0 -20 0 -20 18v185c0 20 11 23 28 23h66c59 0 92 -24 92 -72c0 -35 -23 -60 -58 -68z" />
    <glyph glyph-name="copyright" unicode="&#xa9;" horiz-adv-x="752" 
d="M376 -13c-194 0 -331 140 -331 335c0 194 141 338 332 338c194 0 330 -140 330 -335c0 -194 -140 -338 -331 -338zM377 41c161 0 271 115 271 282c0 163 -115 283 -273 283c-161 0 -271 -115 -271 -282c0 -163 115 -283 273 -283zM385 142c-105 0 -180 74 -180 180
c0 103 78 180 179 180c56 0 96 -22 115 -41c13 -13 19 -25 19 -40c0 -20 -28 -48 -45 -31c-20 28 -49 43 -88 43c-56 0 -103 -47 -103 -110c0 -65 47 -111 106 -111c41 0 70 18 88 46c14 21 46 -9 46 -31c0 -13 -8 -28 -23 -44c-19 -20 -59 -41 -114 -41z" />
    <glyph glyph-name="trademark" unicode="&#x2122;" horiz-adv-x="683" 
d="M363 336c-19 0 -27 0 -27 20v272c0 22 10 23 30 23h27c21 0 28 -7 34 -23l60 -147l60 147c7 18 16 23 33 23h26c20 0 30 -1 30 -23v-272c0 -20 -7 -20 -27 -20h-9c-18 0 -27 0 -27 20v201l-55 -141c-6 -15 -6 -16 -32 -16c-24 0 -25 1 -31 16l-56 140v-200
c0 -20 -6 -20 -25 -20h-11zM120 588h-72c-20 0 -31 0 -31 19v23c0 19 11 18 31 18h211c20 0 30 1 30 -18v-23c0 -19 -10 -19 -30 -19h-72v-232c0 -20 -10 -20 -30 -20h-9c-18 0 -28 0 -28 20v232z" />
    <glyph glyph-name="bracketleft" unicode="[" horiz-adv-x="312" 
d="M125 -198c-33 0 -55 13 -55 48v752c0 35 22 48 55 48h124c34 0 47 -2 47 -28v-27c0 -27 -13 -29 -47 -29h-86v-680h86c35 0 48 -2 48 -28v-26c0 -27 -13 -30 -48 -30h-124z" />
    <glyph glyph-name="backslash" unicode="\" horiz-adv-x="339" 
d="M252 -180l-231 748c-5 17 -8 31 -8 40c0 41 34 46 56 46c13 0 21 -7 26 -22l231 -748c5 -17 8 -31 8 -40c0 -41 -34 -46 -56 -46c-13 0 -21 7 -26 22z" />
    <glyph glyph-name="bracketright" unicode="]" horiz-adv-x="312" 
d="M187 -198h-124c-35 0 -48 3 -48 30v26c0 26 13 28 48 28h86v680h-86c-34 0 -47 2 -47 29v27c0 26 13 28 47 28h124c33 0 55 -13 55 -48v-752c0 -35 -22 -48 -55 -48z" />
    <glyph glyph-name="underscore" unicode="_" horiz-adv-x="479" 
d="M56 -82c-28 0 -43 4 -43 28v25c0 24 15 29 43 29h367c28 0 43 -5 43 -29v-25c0 -24 -15 -28 -43 -28h-367z" />
    <glyph glyph-name="braceleft" unicode="{" horiz-adv-x="475" 
d="M289 376c0 -73 -36 -119 -103 -148c67 -29 103 -75 103 -148v-90c0 -103 8 -103 85 -103c14 0 37 4 55 4c15 0 21 -8 21 -33c0 -38 -30 -62 -101 -62c-115 0 -163 44 -163 196v92c0 71 -24 104 -86 104h-26c-36 0 -49 5 -49 27v26c0 26 18 27 49 27h26c62 0 86 33 86 104
v92c0 152 48 196 163 196c71 0 101 -24 101 -62c0 -25 -6 -33 -21 -33c-18 0 -41 4 -55 4c-77 0 -85 0 -85 -103v-90z" />
    <glyph glyph-name="bar" unicode="|" horiz-adv-x="256" 
d="M123 -198c-26 0 -45 1 -45 38v776c0 36 19 37 45 37h10c26 0 44 -1 44 -37v-776c0 -36 -18 -38 -44 -38h-10z" />
    <glyph glyph-name="braceright" unicode="}" horiz-adv-x="475" 
d="M186 376v90c0 103 -8 103 -85 103c-14 0 -37 -4 -55 -4c-15 0 -21 8 -21 33c0 38 30 62 101 62c115 0 163 -44 163 -196v-92c0 -71 24 -104 86 -104h26c31 0 49 -1 49 -27v-26c0 -22 -13 -27 -49 -27h-26c-62 0 -86 -33 -86 -104v-92c0 -152 -48 -196 -163 -196
c-71 0 -101 24 -101 62c0 25 6 33 21 33c18 0 41 -4 55 -4c77 0 85 0 85 103v90c0 73 35 119 102 148c-67 29 -102 75 -102 148z" />
    <glyph glyph-name="guillemotleft" unicode="&#xab;" horiz-adv-x="534" 
d="M243 333l-109 -88l109 -90c21 -17 33 -29 33 -60c0 -39 -28 -48 -37 -41l-174 135c-16 13 -30 27 -30 55s14 42 30 55l174 135c9 7 37 -2 37 -41c0 -31 -12 -43 -33 -60zM446 333l-109 -88l109 -90c21 -17 33 -29 33 -60c0 -39 -28 -48 -37 -41l-174 135
c-16 13 -30 27 -30 55s14 42 30 55l174 135c9 7 37 -2 37 -41c0 -31 -12 -43 -33 -60z" />
    <glyph glyph-name="guillemotright" unicode="&#xbb;" horiz-adv-x="534" 
d="M400 245l-109 88c-21 17 -33 29 -33 60c0 39 28 48 37 41l174 -135c16 -13 30 -27 30 -55s-14 -42 -30 -55l-174 -135c-9 -7 -37 2 -37 41c0 31 12 43 33 60zM197 245l-109 88c-21 17 -33 29 -33 60c0 39 28 48 37 41l174 -135c16 -13 30 -27 30 -55s-14 -42 -30 -55
l-174 -135c-9 -7 -37 2 -37 41c0 31 12 43 33 60z" />
    <glyph glyph-name="ellipsis" unicode="&#x2026;" horiz-adv-x="667" 
d="M548 -7c-35 0 -54 19 -54 54v12c0 35 19 55 54 55h13c37 0 56 -20 56 -55v-12c0 -35 -19 -54 -56 -54h-13zM326 -7c-35 0 -54 19 -54 54v12c0 35 19 55 54 55h13c37 0 55 -20 55 -55v-12c0 -35 -18 -54 -55 -54h-13zM104 -7c-35 0 -54 19 -54 54v12c0 35 18 55 54 55h13
c37 0 55 -20 55 -55v-12c0 -35 -19 -54 -55 -54h-13z" />
    <glyph glyph-name="endash" unicode="&#x2013;" 
d="M78 211c-31 0 -43 5 -43 28v19c0 22 12 28 43 28h429c31 0 43 -6 43 -28v-19c0 -23 -12 -28 -43 -28h-429z" />
    <glyph glyph-name="emdash" unicode="&#x2014;" horiz-adv-x="749" 
d="M78 211c-31 0 -43 5 -43 28v19c0 22 12 28 43 28h593c31 0 43 -6 43 -28v-19c0 -23 -12 -28 -43 -28h-593z" />
    <glyph glyph-name="quotedblleft" unicode="&#x201c;" horiz-adv-x="391" 
d="M219 550l64 103c12 24 66 7 55 -19l-41 -93v-73c0 -33 -15 -36 -36 -36h-24c-23 0 -39 3 -39 36v27c0 15 6 31 21 55zM67 550l64 103c12 24 66 7 55 -19l-41 -93v-73c0 -33 -15 -36 -36 -36h-24c-23 0 -39 3 -39 36v27c0 15 6 31 21 55z" />
    <glyph glyph-name="quotedblright" unicode="&#x201d;" horiz-adv-x="404" 
d="M112 436c-12 -24 -66 -7 -55 19l41 93v73c0 33 15 36 36 36h24c23 0 39 -3 39 -36v-27c0 -15 -6 -31 -21 -55zM264 436c-12 -24 -66 -7 -55 19l41 93v73c0 33 15 36 36 36h24c23 0 39 -3 39 -36v-27c0 -15 -6 -31 -21 -55z" />
    <glyph glyph-name="quoteleft" unicode="&#x2018;" horiz-adv-x="252" 
d="M76 550l64 103c12 24 66 7 55 -19l-41 -93v-73c0 -33 -15 -36 -36 -36h-24c-23 0 -39 3 -39 36v27c0 15 6 31 21 55z" />
    <glyph glyph-name="quoteright" unicode="&#x2019;" horiz-adv-x="252" 
d="M112 436c-12 -24 -66 -7 -55 19l41 93v73c0 33 15 36 36 36h24c23 0 39 -3 39 -36v-27c0 -15 -6 -31 -21 -55z" />
    <glyph glyph-name="afii10036" unicode="&#x422;" horiz-adv-x="593" 
d="M68 647h463c31 0 48 -5 44 -33l-3 -25c-3 -28 -21 -34 -52 -34h-171v-522c0 -31 -16 -37 -46 -37h-14c-29 0 -44 6 -44 37v522h-177c-31 0 -48 6 -48 34v25c0 28 17 33 48 33z" />
    <glyph glyph-name="afii10039" unicode="&#x425;" horiz-adv-x="606" 
d="M463 31l-163 234l-164 -233c-21 -30 -32 -36 -61 -36c-23 0 -54 13 -54 33c0 3 0 6 2 9l213 287l-205 283c-2 3 -2 6 -2 9c0 21 31 34 55 34c29 0 42 -3 63 -34l158 -230l161 228c21 30 32 36 61 36c23 0 54 -13 54 -33c0 -3 0 -6 -2 -9l-210 -285l211 -284
c2 -3 2 -6 2 -9c0 -21 -31 -34 -55 -34c-29 0 -42 3 -64 34z" />
    <glyph glyph-name="afii10048" unicode="&#x42e;" horiz-adv-x="987" 
d="M626 -13c-179 0 -307 118 -325 292h-129v-245c0 -31 -15 -37 -45 -37h-15c-28 0 -43 6 -43 37v579c0 31 15 37 43 37h15c30 0 45 -6 45 -37v-244h130c20 172 149 291 325 291c193 0 327 -138 327 -336s-136 -337 -328 -337zM627 78c131 0 223 100 223 244
s-93 247 -224 247s-223 -100 -223 -245c0 -144 93 -246 224 -246z" />
    <glyph glyph-name="afii10080" unicode="&#x43e;" horiz-adv-x="568" 
d="M284 -13c-149 0 -252 105 -252 254c0 147 104 252 253 252c147 0 251 -106 251 -254c0 -147 -104 -252 -252 -252zM284 68c92 0 160 73 160 171c0 100 -67 173 -160 173c-92 0 -161 -72 -161 -171s69 -173 161 -173z" />
    <glyph glyph-name="afii10083" unicode="&#x441;" horiz-adv-x="516" 
d="M282 -13c-145 0 -250 106 -250 254c0 146 106 252 250 252c143 0 206 -84 206 -138c0 -48 -53 -56 -59 -39c-21 54 -63 94 -145 94c-90 0 -158 -71 -158 -169c0 -99 67 -171 158 -171c81 0 127 40 145 94c6 19 59 10 59 -38c0 -64 -64 -139 -206 -139z" />
    <glyph glyph-name="afii10085" unicode="&#x443;" horiz-adv-x="498" 
d="M483 449l-196 -514c-39 -102 -81 -135 -151 -135c-61 0 -85 35 -85 66c0 15 8 34 27 29c50 -13 82 -30 122 67l27 65c-29 0 -35 4 -45 28l-166 395c-4 9 -1 14 4 19c9 8 25 17 45 17c28 0 42 -3 59 -46l134 -342l119 342c15 44 30 46 58 46c20 0 36 -9 45 -17
c5 -5 7 -11 3 -20z" />
    <glyph glyph-name="afii10087" unicode="&#x445;" horiz-adv-x="489" 
d="M242 188l-104 -151c-26 -38 -38 -42 -71 -42c-25 0 -60 16 -42 40l156 205l-154 206c-19 23 17 40 42 40c33 0 43 -3 70 -41l107 -153l105 153c26 38 37 41 70 41c25 0 60 -16 42 -40l-155 -206l154 -205c18 -24 -17 -40 -42 -40c-33 0 -44 3 -71 41
c0 0 -107 153 -107 152z" />
    <glyph glyph-name="afii10065" unicode="&#x430;" horiz-adv-x="523" 
d="M221 60c86 0 148 54 148 130v37l-27 -1c-140 -5 -212 -31 -212 -96c0 -43 34 -70 91 -70zM369 289v10c0 73 -40 113 -117 113c-73 0 -103 -34 -137 -78c-12 -15 -60 -10 -60 38c0 55 68 121 204 121s208 -70 208 -192v-281c0 -20 -18 -25 -36 -25c-35 0 -60 19 -61 78
c-36 -52 -99 -84 -173 -84c-103 0 -164 55 -164 137c0 111 106 159 312 163h24z" />
    <glyph glyph-name="afii10070" unicode="&#x435;" horiz-adv-x="540" 
d="M125 281h288c-5 83 -56 137 -136 137c-79 0 -140 -57 -152 -137zM125 214c7 -88 72 -149 163 -149c84 0 125 37 151 80c10 16 52 0 52 -40c0 -51 -74 -118 -205 -118c-152 0 -254 101 -254 251c0 146 104 255 246 255c139 0 231 -98 231 -242v-8c0 -21 -7 -29 -30 -29
h-354z" />
    <glyph glyph-name="afii10071" unicode="&#x451;" horiz-adv-x="540" 
d="M363 546c-38 0 -61 22 -61 59c0 38 23 60 59 60s60 -22 60 -60c0 -37 -24 -59 -58 -59zM179 546c-36 0 -60 22 -60 59c0 38 24 60 58 60c38 0 61 -22 61 -60c0 -37 -23 -59 -59 -59zM125 281h288c-5 83 -56 137 -136 137c-79 0 -140 -57 -152 -137zM125 214
c7 -88 72 -149 163 -149c84 0 125 37 151 80c10 16 52 0 52 -40c0 -51 -74 -118 -205 -118c-152 0 -254 101 -254 251c0 146 104 255 246 255c139 0 231 -98 231 -242v-8c0 -21 -7 -29 -30 -29h-354z" />
    <glyph glyph-name="afii10023" unicode="&#x401;" horiz-adv-x="587" 
d="M386 693c-38 0 -61 22 -61 59c0 38 23 60 59 60s60 -22 60 -60c0 -37 -24 -59 -58 -59zM202 693c-36 0 -60 22 -60 59c0 38 24 60 58 60c38 0 61 -22 61 -60c0 -37 -23 -59 -59 -59zM124 0c-33 0 -55 12 -55 47v552c0 35 22 48 55 48h380c32 0 47 -6 44 -33l-3 -26
c-4 -28 -20 -33 -52 -33h-321v-181h248c33 0 47 -4 44 -31l-3 -23c-3 -28 -20 -33 -52 -33h-237v-195h333c32 0 47 -14 47 -41v-16c0 -29 -15 -35 -47 -35h-381z" />
    <glyph glyph-name="afii10082" unicode="&#x440;" 
d="M159 251v-30c0 -92 68 -152 148 -152c90 0 150 69 150 171c0 100 -62 171 -148 171c-77 0 -150 -55 -150 -160zM160 77v-236c0 -36 -19 -37 -44 -37h-11c-26 0 -44 1 -44 37v626c0 12 16 19 36 19c30 0 61 -16 62 -83c38 56 93 90 169 90c129 0 225 -99 225 -252
c0 -151 -95 -254 -228 -254c-79 0 -138 43 -165 90z" />
    <glyph glyph-name="afii10043" unicode="&#x429;" horiz-adv-x="1053" 
d="M933 -130v130h-821c-28 0 -43 6 -43 37v577c0 31 15 37 43 37h15c30 0 45 -6 45 -37v-522h278v522c0 31 15 37 43 37h15c30 0 45 -6 45 -37v-522h278v522c0 31 15 37 43 37h15c30 0 45 -6 45 -37v-522h54c30 0 45 -6 45 -37v-185c0 -31 -15 -37 -45 -37h-15
c-28 0 -40 6 -40 37z" />
    <glyph glyph-name="afii10038" unicode="&#x424;" horiz-adv-x="783" 
d="M442 211h73c99 0 140 63 140 143c0 81 -41 145 -139 145h-74v-288zM340 584v75c0 31 15 37 43 37h15c30 0 45 -9 45 -37v-75h74c150 0 241 -95 241 -228c0 -136 -88 -228 -245 -228h-70v-105c0 -28 -15 -37 -45 -37h-15c-28 0 -43 6 -43 37v105h-70
c-157 0 -245 92 -245 228c0 133 91 228 241 228h74zM268 211h73v288h-74c-98 0 -139 -64 -139 -145c0 -80 41 -143 140 -143z" />
    <glyph glyph-name="afii10026" unicode="&#x418;" horiz-adv-x="695" 
d="M523 489l-358 -477c-10 -13 -29 -16 -38 -16h-15c-28 0 -43 6 -43 37v581c0 31 15 37 43 37h15c30 0 45 -6 45 -37v-455l356 476c10 13 29 16 38 16h15c30 0 45 -6 45 -37v-581c0 -31 -15 -37 -45 -37h-15c-28 0 -43 6 -43 37v456z" />
    <glyph glyph-name="afii10029" unicode="&#x41b;" horiz-adv-x="656" 
d="M44 83c117 0 128 179 128 527c0 31 15 37 45 37h325c30 0 45 -6 45 -37v-576c0 -31 -15 -37 -45 -37h-17c-28 0 -38 6 -41 37v521h-214c-2 -324 -26 -561 -184 -561c-62 0 -71 30 -71 68c0 19 15 21 29 21z" />
    <glyph glyph-name="afii10044" unicode="&#x42a;" horiz-adv-x="689" 
d="M68 647h186c30 0 45 -9 45 -37v-196h105c167 0 255 -72 255 -208c0 -133 -91 -206 -251 -206h-157c-33 0 -55 13 -55 48v507h-128c-31 0 -48 6 -48 34v25c0 28 17 33 48 33zM406 331h-108v-246h109c98 0 149 42 149 123c0 80 -51 123 -150 123z" />
    <glyph glyph-name="afii10018" unicode="&#x411;" horiz-adv-x="567" 
d="M439 555h-267v-161h110c167 0 255 -62 255 -198c0 -133 -91 -196 -251 -196h-162c-33 0 -55 13 -55 48v562c0 31 15 37 43 37h338c32 0 47 -6 44 -33l-3 -26c-4 -28 -20 -33 -52 -33zM284 311h-113v-226h114c98 0 149 32 149 113c0 80 -51 113 -150 113z" />
    <glyph glyph-name="afii10040" unicode="&#x426;" horiz-adv-x="725" 
d="M605 -130v130h-493c-28 0 -43 6 -43 37v577c0 31 15 37 43 37h15c30 0 45 -6 45 -37v-522h331v522c0 31 15 37 43 37h15c30 0 45 -6 45 -37v-522h54c30 0 45 -6 45 -37v-185c0 -31 -15 -37 -45 -37h-15c-28 0 -40 6 -40 37z" />
    <glyph glyph-name="afii10047" unicode="&#x42d;" horiz-adv-x="636" 
d="M287 -13c-172 0 -257 97 -257 156c0 51 57 68 64 50c27 -70 100 -113 187 -113c139 0 202 81 213 202h-220c-33 0 -47 4 -44 31l3 23c3 28 20 33 52 33h208c-11 119 -71 198 -210 198c-73 0 -147 -35 -183 -100c-10 -18 -60 -3 -60 46c0 58 82 147 244 147
c224 0 319 -140 319 -338c0 -197 -94 -335 -316 -335z" />
    <glyph glyph-name="afii10081" unicode="&#x43f;" horiz-adv-x="562" 
d="M105 481h352c25 0 44 -6 44 -42v-406c0 -36 -18 -37 -44 -37h-11c-25 0 -44 1 -44 37v367h-242v-367c0 -36 -18 -37 -44 -37h-11c-25 0 -44 1 -44 37v406c0 36 19 42 44 42z" />
    <glyph glyph-name="afii10088" unicode="&#x446;" horiz-adv-x="610" 
d="M500 -108v108h-395c-25 0 -44 6 -44 42v406c0 36 19 37 44 37h11c26 0 44 -1 44 -37v-367h246v367c0 36 19 37 44 37h11c26 0 44 -1 44 -37v-367h46c25 0 44 -6 44 -42v-147c0 -36 -18 -37 -44 -37h-7c-25 0 -44 1 -44 37z" />
    <glyph glyph-name="afii10090" unicode="&#x448;" horiz-adv-x="787" 
d="M388 485h11c26 0 44 -1 44 -37v-367h184v367c0 36 19 37 44 37h11c26 0 44 -1 44 -37v-406c0 -36 -19 -42 -44 -42h-577c-25 0 -44 6 -44 42v406c0 36 19 37 44 37h11c26 0 44 -1 44 -37v-367h184v367c0 36 19 37 44 37z" />
    <glyph glyph-name="afii10091" unicode="&#x449;" horiz-adv-x="831" 
d="M721 0h-616c-25 0 -44 6 -44 42v406c0 36 19 37 44 37h11c26 0 44 -1 44 -37v-367h184v367c0 36 19 37 44 37h11c26 0 44 -1 44 -37v-367h184v367c0 36 19 37 44 37h11c26 0 44 -1 44 -37v-367h46c25 0 44 -6 44 -42v-147c0 -36 -18 -37 -44 -37h-7c-25 0 -44 1 -44 37
v108z" />
    <glyph glyph-name="afii10079" unicode="&#x43d;" horiz-adv-x="566" 
d="M61 449c0 35 19 36 44 36h11c26 0 44 -1 44 -37v-166h246v166c0 36 19 37 44 37h11c26 0 44 -1 44 -36v-416c0 -36 -18 -37 -44 -37h-11c-25 0 -44 1 -44 37v168h-246v-168c0 -36 -18 -37 -44 -37h-11c-25 0 -44 1 -44 37v416z" />
    <glyph glyph-name="afii10076" unicode="&#x43a;" horiz-adv-x="474" 
d="M160 266l167 186c20 20 34 35 63 35c44 0 57 -26 47 -40l-175 -193l199 -216c11 -15 -5 -43 -50 -43c-33 0 -43 14 -63 36l-188 204v-202c0 -36 -19 -37 -44 -37h-11c-26 0 -44 1 -44 37v415c0 36 19 37 45 37h10c26 0 44 -1 44 -37v-182z" />
    <glyph glyph-name="afii10096" unicode="&#x44e;" horiz-adv-x="798" 
d="M514 -13c-136 0 -233 86 -250 214h-104v-168c0 -36 -18 -37 -44 -37h-11c-25 0 -44 1 -44 37v416c0 35 19 36 44 36h11c26 0 44 -1 44 -37v-166h104c18 125 116 211 251 211c147 0 251 -106 251 -254c0 -147 -104 -252 -252 -252zM514 68c92 0 160 73 160 171
c0 100 -67 173 -160 173c-92 0 -161 -72 -161 -171s69 -173 161 -173z" />
    <glyph glyph-name="afii10068" unicode="&#x433;" horiz-adv-x="426" 
d="M105 481h267c28 0 39 -2 39 -19v-7l-3 -27c-3 -25 -15 -28 -46 -28h-202v-367c0 -36 -18 -37 -44 -37h-11c-25 0 -44 1 -44 37v406c0 36 19 42 44 42z" />
    <glyph glyph-name="afii10084" unicode="&#x442;" horiz-adv-x="474" 
d="M186 400h-133c-31 0 -43 3 -43 28v27c0 23 3 26 42 26h373c28 0 39 -2 39 -19v-7l-3 -27c-3 -25 -15 -28 -46 -28h-130v-367c0 -36 -18 -37 -44 -37h-11c-25 0 -44 1 -44 37v367z" />
    <glyph glyph-name="afii10027" unicode="&#x419;" horiz-adv-x="695" 
d="M352 722h4c52 0 80 27 80 81c0 18 65 14 65 -35c0 -57 -37 -107 -147 -107s-147 50 -147 107c0 49 65 53 65 35c0 -54 25 -81 80 -81zM523 489l-358 -477c-10 -13 -29 -16 -38 -16h-15c-28 0 -43 6 -43 37v581c0 31 15 37 43 37h15c30 0 45 -6 45 -37v-455l356 476
c10 13 29 16 38 16h15c30 0 45 -6 45 -37v-581c0 -31 -15 -37 -45 -37h-15c-28 0 -43 6 -43 37v456z" />
    <glyph glyph-name="afii10089" unicode="&#x447;" horiz-adv-x="514" 
d="M453 447v-413c0 -37 -18 -38 -44 -38h-11c-25 0 -43 2 -43 38v144c-188 -90 -315 -39 -315 107v163c0 36 18 38 43 38h11c26 0 44 -1 44 -38v-140c0 -125 99 -106 217 -53v192c0 36 18 38 43 38h11c26 0 44 -1 44 -38z" />
    <glyph glyph-name="afii10025" unicode="&#x417;" horiz-adv-x="564" 
d="M387 340c86 -22 142 -78 142 -159c0 -121 -103 -194 -261 -194c-157 0 -238 87 -238 145c0 53 48 55 57 43c51 -68 110 -104 186 -104c87 0 155 44 155 114c0 75 -51 104 -148 104h-55c-36 0 -40 5 -40 27v26c0 27 9 27 40 27h57c79 0 121 47 121 108
c0 62 -51 100 -136 100c-78 0 -120 -46 -159 -89c-15 -16 -59 -6 -59 42c0 55 86 130 219 130c149 0 235 -64 235 -175c0 -70 -46 -126 -116 -145z" />
    <glyph glyph-name="afii10072" unicode="&#x436;" horiz-adv-x="678" 
d="M344 -4h-10c-25 0 -44 1 -44 37v202l-168 -204c-20 -22 -30 -36 -63 -36c-45 0 -61 28 -50 43l184 216l-160 193c-10 14 3 40 47 40c29 0 43 -15 63 -35l147 -186v182c0 36 18 37 44 37h10c26 0 44 -1 44 -37v-182l147 186c20 20 34 35 63 35c44 0 57 -26 47 -40
l-160 -193l184 -216c11 -15 -5 -43 -50 -43c-33 0 -43 14 -63 36l-168 204v-202c0 -36 -19 -37 -44 -37z" />
    <glyph glyph-name="afii10074" unicode="&#x438;" horiz-adv-x="576" 
d="M61 449c0 35 19 36 44 36h11c26 0 44 -1 44 -37v-304l256 314c17 22 25 27 44 27h11c26 0 44 -1 44 -36v-416c0 -36 -18 -37 -44 -37h-11c-25 0 -44 1 -44 37v304l-256 -314c-17 -22 -27 -27 -44 -27h-11c-25 0 -44 1 -44 37v416z" />
    <glyph glyph-name="afii10075" unicode="&#x439;" horiz-adv-x="576" 
d="M291 577h4c52 0 70 27 70 81c0 18 75 14 75 -35c0 -57 -47 -107 -147 -107s-147 50 -147 107c0 49 75 53 75 35c0 -54 15 -81 70 -81zM61 449c0 35 19 36 44 36h11c26 0 44 -1 44 -37v-304l256 314c17 22 25 27 44 27h11c26 0 44 -1 44 -36v-416c0 -36 -18 -37 -44 -37
h-11c-25 0 -44 1 -44 37v304l-256 -314c-17 -22 -27 -27 -44 -27h-11c-25 0 -44 1 -44 37v416z" />
    <glyph glyph-name="afii61352" unicode="&#x2116;" horiz-adv-x="1029" 
d="M111 -4c-29 0 -42 6 -42 37v570c0 35 17 48 49 48h17c31 0 44 -12 62 -39l300 -444v446c0 31 13 37 43 37h12c28 0 42 -6 42 -37v-570c0 -36 -18 -48 -48 -48h-8c-31 0 -40 8 -55 31l-317 467v-461c0 -31 -14 -37 -44 -37h-11zM827 279c-89 0 -155 65 -155 151v9
c0 86 67 153 156 153c90 0 156 -65 156 -151v-9c0 -86 -68 -153 -157 -153zM828 342c46 0 79 35 79 86v15c0 51 -34 87 -80 87s-79 -35 -79 -87v-15c0 -50 34 -86 80 -86zM734 140c-28 0 -43 4 -43 28v25c0 24 15 29 43 29h188c28 0 43 -5 43 -29v-25c0 -24 -15 -28 -43 -28
h-188z" />
    <glyph glyph-name="afii10086" unicode="&#x444;" horiz-adv-x="687" 
d="M294 -153v140h-10c-149 0 -252 95 -252 254c0 157 104 252 253 252h9v149c1 36 18 37 45 37h10c26 0 44 -1 44 -37v-149h9c149 0 253 -95 253 -252c0 -159 -103 -254 -252 -254h-10v-140c0 -36 -18 -37 -44 -37h-10c-26 0 -45 1 -45 37zM284 68h10v344h-10
c-92 0 -161 -62 -161 -171s69 -173 161 -173zM403 412h-10v-344h10c92 0 161 64 161 173s-69 171 -161 171z" />
    <glyph glyph-name="afii10066" unicode="&#x431;" horiz-adv-x="571" 
d="M318 550c-95 -16 -202 -69 -210 -223c30 84 100 137 201 137c135 0 230 -98 230 -237c0 -140 -104 -239 -252 -239c-149 0 -255 95 -255 324c0 225 139 294 262 322l126 29c47 11 50 26 67 26c18 0 19 -13 19 -39c0 -46 -12 -72 -75 -82zM287 65c92 0 160 69 160 162
c0 95 -67 164 -160 164c-92 0 -161 -68 -161 -162s69 -164 161 -164z" />
    <glyph glyph-name="afii10094" unicode="&#x44c;" horiz-adv-x="486" 
d="M160 448v-135h103c126 0 193 -55 193 -157c0 -101 -69 -156 -190 -156h-160c-26 0 -45 1 -45 37v411c0 36 19 38 45 38h10c26 0 44 -1 44 -38zM263 232h-103v-150h103c59 0 91 26 91 75s-32 75 -91 75z" />
    <glyph glyph-name="afii10093" unicode="&#x44b;" horiz-adv-x="686" 
d="M160 448v-135h103c126 0 193 -55 193 -157c0 -101 -69 -156 -190 -156h-160c-26 0 -45 1 -45 37v411c0 36 19 38 45 38h10c26 0 44 -1 44 -38zM571 -4c-26 0 -45 1 -45 37v415c0 36 19 38 45 38h10c26 0 44 -1 44 -38v-415c0 -36 -18 -37 -44 -37h-10zM263 232h-103v-150
h103c59 0 91 26 91 75s-32 75 -91 75z" />
    <glyph glyph-name="afii10092" unicode="&#x44a;" horiz-adv-x="588" 
d="M49 481h169c26 0 44 -1 44 -38v-130h103c126 0 193 -55 193 -157c0 -101 -69 -156 -190 -156h-160c-26 0 -45 1 -45 37v363h-113c-31 0 -43 3 -43 28v27c0 22 17 26 42 26zM365 232h-103v-150h103c59 0 91 26 91 75s-32 75 -91 75z" />
    <glyph glyph-name="afii10095" unicode="&#x44d;" horiz-adv-x="516" 
d="M248 -13c-142 0 -216 75 -216 139c0 48 53 57 59 38c18 -54 74 -94 155 -94c79 0 133 55 145 135h-183c-31 0 -43 3 -43 28v27c0 23 3 26 42 26h182c-15 74 -68 124 -143 124c-82 0 -134 -40 -155 -94c-6 -17 -59 -9 -59 39c0 54 73 138 216 138c144 0 240 -106 240 -252
c0 -148 -95 -254 -240 -254z" />
    <glyph glyph-name="afii10041" unicode="&#x427;" horiz-adv-x="606" 
d="M434 33v226c-214 -87 -392 -46 -393 122l-1 233c0 31 15 37 43 37h15c30 0 45 -6 45 -37l1 -214c1 -129 151 -105 290 -57v271c0 31 15 37 43 37h15c30 0 45 -6 45 -37v-581c0 -31 -15 -37 -45 -37h-15c-28 0 -43 6 -43 37z" />
    <glyph glyph-name="afii10069" unicode="&#x434;" horiz-adv-x="595" 
d="M101 0v-108c0 -36 -19 -37 -44 -37h-7c-26 0 -44 1 -44 37v147c0 36 19 42 44 42h22c54 93 93 190 93 363c0 36 19 37 44 37h252c26 0 44 -1 44 -37v-363h36c25 0 44 -6 44 -42v-147c0 -36 -18 -37 -44 -37h-7c-25 0 -44 1 -44 37v108h-389zM172 81h234v319h-151
c-5 -149 -37 -234 -83 -319z" />
    <glyph glyph-name="afii10097" unicode="&#x44f;" horiz-adv-x="515" 
d="M391 -5c-26 0 -44 1 -44 38v135h-87l-113 -137c-20 -22 -30 -36 -63 -36c-45 0 -61 28 -50 43l120 142c-68 21 -103 70 -103 145c0 101 69 156 190 156h160c26 0 45 -1 45 -37v-411c0 -36 -19 -38 -45 -38h-10zM153 324c0 -49 32 -75 91 -75h103v150h-103
c-59 0 -91 -26 -91 -75z" />
    <glyph glyph-name="afii10077" unicode="&#x43b;" horiz-adv-x="545" 
d="M123 439c0 36 19 42 44 42h273c25 0 44 -6 44 -42v-406c0 -36 -18 -37 -44 -37h-11c-25 0 -44 1 -44 37v367h-171c-1 -244 -14 -406 -148 -406c-54 0 -61 24 -61 56c0 14 11 25 21 25c92 0 97 96 97 364z" />
    <glyph glyph-name="afii10067" unicode="&#x432;" horiz-adv-x="509" 
d="M451 354c0 -44 -23 -82 -69 -104c62 -22 93 -65 93 -118c0 -86 -53 -132 -189 -132h-180c-26 0 -45 1 -45 37v405c0 36 19 39 45 39h156c136 0 189 -43 189 -127zM283 204h-123v-122h123c72 0 92 21 92 61c0 41 -21 61 -92 61zM259 400h-99v-115h99c71 0 92 19 92 58
s-20 57 -92 57z" />
    <glyph glyph-name="afii10078" unicode="&#x43c;" horiz-adv-x="639" 
d="M319 126c-28 0 -46 2 -58 27l-105 234v-354c0 -36 -19 -37 -44 -37h-7c-26 0 -44 1 -44 37v416c0 35 18 36 44 36h52c19 0 40 -3 54 -27l108 -247l108 247c14 24 35 27 54 27h52c26 0 44 -1 44 -36v-416c0 -36 -18 -37 -44 -37h-7c-25 0 -44 1 -44 37v354l-105 -234
c-12 -25 -30 -27 -58 -27z" />
    <glyph glyph-name="afii10024" unicode="&#x416;" horiz-adv-x="833" 
d="M424 -4h-15c-30 0 -45 6 -45 37v281l-244 -289c-17 -21 -34 -29 -56 -29c-34 0 -48 18 -55 31c-4 7 -6 13 4 23l247 281l-245 271c-9 10 -2 28 8 36c12 9 25 13 37 13c25 0 49 -16 62 -30l242 -277v270c0 31 15 37 45 37h15c30 0 45 -6 45 -37v-270l242 277
c13 14 37 30 62 30c12 0 25 -4 37 -13c10 -8 17 -26 8 -36l-245 -271l247 -281c10 -10 8 -16 4 -23c-7 -13 -21 -31 -55 -31c-22 0 -39 8 -56 29l-244 289v-281c0 -31 -15 -37 -45 -37z" />
    <glyph glyph-name="afii10037" unicode="&#x423;" horiz-adv-x="534" 
d="M133 609l150 -341l133 341c17 42 31 48 59 48c33 0 54 -19 54 -34c0 -3 -1 -6 -2 -9l-195 -488c-39 -102 -81 -136 -153 -136c-64 0 -89 30 -89 62s12 41 25 41c21 0 39 -7 52 -7c36 0 53 20 75 76l13 33h-20c-25 1 -34 10 -43 31l-178 389c-2 3 -2 6 -2 9
c0 14 22 33 55 33c30 0 46 -4 66 -48z" />
    <glyph glyph-name="afii10073" unicode="&#x437;" horiz-adv-x="472" 
d="M418 357c0 -47 -37 -88 -79 -100c50 -18 101 -64 101 -120c0 -93 -77 -150 -207 -150c-148 0 -208 69 -208 115c0 49 47 47 59 36c33 -45 72 -70 150 -70c71 0 105 39 105 76c0 35 -32 68 -98 68h-53c-35 0 -38 5 -38 30v19c0 28 8 28 38 28h52c59 0 78 30 78 60
c0 31 -18 63 -92 63c-71 0 -100 -31 -128 -60c-14 -17 -59 -9 -59 37c0 43 62 103 184 103c134 0 195 -50 195 -135z" />
    <glyph glyph-name="quotedblbase" unicode="&#x201e;" horiz-adv-x="404" 
d="M112 -119c-12 -24 -66 -7 -55 19l41 93v73c0 33 15 36 36 36h24c23 0 39 -3 39 -36v-27c0 -15 -6 -31 -21 -55zM264 -119c-12 -24 -66 -7 -55 19l41 93v73c0 33 15 36 36 36h24c23 0 39 -3 39 -36v-27c0 -15 -6 -31 -21 -55z" />
    <glyph glyph-name="Euro" unicode="&#x20ac;" horiz-adv-x="733" 
d="M78 347c-32 0 -43 7 -43 29v20c0 22 11 29 43 29h49c38 143 157 237 317 237c162 0 244 -89 244 -147c0 -51 -45 -63 -56 -45c-36 64 -114 102 -187 102c-133 0 -227 -101 -227 -247s97 -248 229 -248c89 0 165 42 191 115c8 24 60 7 60 -50c0 -58 -85 -155 -257 -155
c-157 0 -274 90 -313 230h-50c-32 0 -43 7 -43 29v20c0 22 11 29 43 29h37c-1 9 -1 18 -1 28c0 8 0 16 1 24h-37zM351 347c-32 0 -43 7 -43 29v20c0 22 11 29 43 29h169c32 0 43 -7 43 -29v-20c0 -22 -11 -29 -43 -29h-169zM351 217c-32 0 -43 7 -43 29v20c0 22 11 29 43 29
h169c32 0 43 -7 43 -29v-20c0 -22 -11 -29 -43 -29h-169z" />
    <glyph glyph-name="C" unicode="C" horiz-adv-x="646" 
d="M359 -13c-192 0 -326 138 -326 335c0 198 135 338 329 338c162 0 244 -89 244 -147c0 -55 -49 -67 -60 -46c-34 66 -110 100 -183 100c-131 0 -223 -99 -223 -243c0 -143 95 -244 225 -244c87 0 162 42 187 113c9 26 64 9 64 -50s-85 -156 -257 -156z" />
    </font>
</defs>
</svg>
